<svg id="Filled" height="512" viewBox="0 0 512 512" width="512" xmlns="http://www.w3.org/2000/svg"><path d="m344 128 39.35 133.789a16.015 16.015 0 0 1 .65 4.511v229.7h-128v-368z" fill="#93573d"/><path d="m304 496h-280v-228.061a32.033 32.033 0 0 1 .955-7.761l39.045-132.178h280l-39.045 132.178a32.033 32.033 0 0 0 -.955 7.761z" fill="#ab6647"/><path d="m126.816 440h-13.632a16 16 0 0 1 -15.96-17.14l6.776-94.86h32l6.776 94.86a16 16 0 0 1 -15.96 17.14z" fill="#e74444"/><path d="m214.32 440h-12.64a16 16 0 0 1 -15.921-17.592l6.241-62.408h32l6.241 62.408a16 16 0 0 1 -15.921 17.592z" fill="#e74444"/><path d="m56 80c-8.837 0-16 10.745-16 24s7.163 24 16 24h288v-48z" fill="#93573d"/><path d="m392 100.773a35.226 35.226 0 0 1 -35.226 35.227h-19.667a3.226 3.226 0 0 0 -1.981.68l-49.926 38.832a27.227 27.227 0 0 1 -37.976-4.483 27.228 27.228 0 0 1 2.008-36.26l49.261-49.261a3.226 3.226 0 0 0 -2.282-5.508h-144.211l80.114-43.7a35.232 35.232 0 0 1 16.869-4.3h203.791a3.227 3.227 0 0 1 3.226 3.226v57.548a3.227 3.227 0 0 1 -3.226 3.226h-56a4.773 4.773 0 0 0 -4.774 4.773z" fill="#f5cbaa"/><path d="m424 16h64v104h-64z" fill="#155384"/><path d="m304 496 40-40 40 40z" fill="#794832"/><path d="m192 360v-8l-16-8s6-80 48-80v96z" fill="#d9dbdd"/><path d="m152 296-16 32h-32l-16-32z" fill="#d9dbdd"/><path d="m232 359.6v-95.6a8 8 0 0 0 -8-8c-48.86 0-55.71 83.833-55.978 87.4a8 8 0 0 0 4.4 7.754l11.578 5.79v2.66l-6.2 62.008a24 24 0 0 0 23.88 26.388h12.64a24 24 0 0 0 23.88-26.388zm-47.451-20.27a175.605 175.605 0 0 1 7.365-33.019c6.148-18.091 14.226-29.1 24.086-32.853v78.542h-16a8 8 0 0 0 -4.422-7.155zm35.7 90.038a7.91 7.91 0 0 1 -5.929 2.632h-12.64a8 8 0 0 1 -7.961-8.8l5.521-55.2h17.52l5.521 55.2a7.908 7.908 0 0 1 -2.029 6.168z"/><path d="m488 8h-64a8 8 0 0 0 -8 8v8h-167.018a43.35 43.35 0 0 0 -20.7 5.278l-78.323 42.722h-93.959c-13.458 0-24 14.056-24 32 0 16.748 9.185 30.1 21.351 31.811l-36.068 122.1c-.032.109-.062.219-.09.328a40.073 40.073 0 0 0 -1.193 9.7v228.061a8 8 0 0 0 8 8h360a8 8 0 0 0 8-8v-227.392a39.933 39.933 0 0 0 -1.626-11.287l-33.332-113.328a43.281 43.281 0 0 0 42.839-39.993h16.119v16a8 8 0 0 0 8 8h64a8 8 0 0 0 8-8v-104a8 8 0 0 0 -8-8zm-440 96c0-9.767 4.738-16 8-16h228.687l-32 32h-196.687c-3.262 0-8-6.233-8-16zm249.193 154.24a40.073 40.073 0 0 0 -1.193 9.7v220.06h-264v-220.061a24.077 24.077 0 0 1 .679-5.668l37.299-126.271h168.235a35.245 35.245 0 0 0 51.9 45.826l38.487-29.937-31.317 106.023c-.032.109-.062.219-.09.328zm46.807 209.074 20.686 20.686h-41.372zm31.025-205.475a23.947 23.947 0 0 1 .975 6.769v208.078l-24-24v-172.686a8 8 0 0 0 -16 0v172.687l-24 24v-208.748a24.077 24.077 0 0 1 .679-5.668l31.3-105.976zm40.975-173.839h-19.227a12.788 12.788 0 0 0 -12.773 12.773 27.258 27.258 0 0 1 -27.227 27.227h-19.666a11.282 11.282 0 0 0 -6.892 2.365l-49.927 38.835a19.226 19.226 0 0 1 -25.4-28.771l54.768-54.769a8 8 0 0 0 -5.656-13.66h-120.626l52.571-28.676a27.3 27.3 0 0 1 13.037-3.324h167.018zm64 24h-48v-88h48z"/><path d="m160 264a8 8 0 0 0 -16 0v24h-16v-24a8 8 0 0 0 -16 0v24h-16v-24a8 8 0 0 0 -16 0v32h.015a7.974 7.974 0 0 0 .83 3.578l15.019 30.039-6.619 92.673a24 24 0 0 0 23.939 25.71h13.632a24 24 0 0 0 23.939-25.71l-6.619-92.673 15.019-30.039a7.974 7.974 0 0 0 .83-3.578h.015zm-20.944 40-8 16h-22.112l-8-16zm-6.384 125.451a7.919 7.919 0 0 1 -5.856 2.549h-13.632a8 8 0 0 1 -7.98-8.569l6.245-87.431h17.1l6.245 87.431a7.919 7.919 0 0 1 -2.122 6.02z"/></svg>